[img]http://img585.imageshack.us/img585/1977/indianajonesu.png[/img]

[b][size=200][color=black]PLOT[/color][/size][/b]

[code]Famed archaeologist/adventurer Dr. Henry "Indiana" Jones is called back into 
action when he becomes entangled in a Soviet plot to uncover the secret behind 
mysterious artifacts known as the Crystal Skulls.[/code]

[b][size=200][color=black]IMDB[/color][/size][/b]

[code]http://www.imdb.com/title/tt0367882/[/code]

[b][size=200][color=black]MOVIE INFO[/color][/size][/b]

[code]Indiana Jones And The Kingdom of the Crystal Skull [2008] BRRip x264 AAC-V3nom

Format                                   : MPEG-4
Format profile                           : Base Media / Version 2
Codec ID                                 : mp42
File size                                : 388 MiB
Duration                                 : 2h 2mn
Overall bit rate mode                    : Variable
Overall bit rate                         : 443 Kbps
Encoded date                             : UTC 2013-02-06 18:46:41
Tagged date                              : UTC 2013-02-06 19:40:56

Video
ID                                       : 1
Format                                   : AVC
Format/Info                              : Advanced Video Codec
Format profile                           : Main@L2.1
Format settings, CABAC                   : Yes
Format settings, ReFrames                : 4 frames
Codec ID                                 : avc1
Codec ID/Info                            : Advanced Video Coding
Duration                                 : 2h 2mn
Bit rate mode                            : Variable
Bit rate                                 : 345 Kbps
Width                                    : 640 pixels
Height                                   : 256 pixels
Display aspect ratio                     : 2.40:1
Frame rate mode                          : Variable
Frame rate                               : 23.976 fps
Minimum frame rate                       : 5.994 fps
Maximum frame rate                       : 23.981 fps
Color space                              : YUV
Chroma subsampling                       : 4:2:0
Bit depth                                : 8 bits
Scan type                                : Progressive
Bits/(Pixel*Frame)                       : 0.088
Stream size                              : 300 MiB (77%)
Writing library                          : x264 core 112

Audio
ID                                       : 2
Format                                   : AAC
Format/Info                              : Advanced Audio Codec
Format profile                           : LC
Codec ID                                 : 40
Duration                                 : 2h 2mn
Bit rate mode                            : Variable
Bit rate                                 : 96.0 Kbps
Maximum bit rate                         : 178 Kbps
Channel(s)                               : 2 channels
Channel positions                        : Front: L R
Sampling rate                            : 48.0 KHz
Compression mode                         : Lossy
Delay relative to video                  : 209ms
Stream size                              : 84.0 MiB (22%)
Language                                 : English
Encoded date                             : UTC 2013-02-06 18:46:41
Tagged date                              : UTC 2013-02-06 19:40:49[/code]

[b][size=200][color=black]SOURCE[/color][/size][/b]

[code]Indiana Jones and the Kingdom of the Crystal Skull (2008) 720p BrRip x264 - YIFY(Thanks)[/code]

[b][size=200][color=black]SCREENSHOTS[/color][/size][/b]

[img]http://img15.imageshack.us/img15/2420/indianajonesandthekingdt.jpg[/img]

[img]http://kastatic.com/i2/users/133df62bbf28e62494bb17fe11078f1a.gif[/img][img]http://kastatic.com/i2/users/133df62bbf28e62494bb17fe11078f1a.gif[/img]